<?xml version="1.0" encoding="utf-8"?>
<!-- Svg Vector Icons : http://www.onlinewebfonts.com/icon -->
<!DOCTYPE svg PUBLIC "-//W3C//DTD SVG 1.1//EN" "http://www.w3.org/Graphics/SVG/1.1/DTD/svg11.dtd">
<svg version="1.1" xmlns="http://www.w3.org/2000/svg" xmlns:xlink="http://www.w3.org/1999/xlink" x="0px" y="0px" viewBox="0 0 1000 1000" enable-background="new 0 0 1000 1000" xml:space="preserve">
<metadata> Svg Vector Icons : http://www.onlinewebfonts.com/icon </metadata>
<g><g><g><path d="M500.5,416.1c46.8-0.2,84.1-37.8,83.9-84.6c-0.2-46.9-37.5-84.2-84.3-84.3c-47.2-0.1-84.9,38-84.5,85.3C415.8,379.2,453.5,416.3,500.5,416.1z"/><path d="M500,10C229.4,10,10,229.4,10,500c0,270.6,219.4,490,490,490s490-219.4,490-490C990,229.4,770.6,10,500,10z M500.7,159c95.4,0.3,172,78.3,171.6,174.8c-0.5,94.3-78.3,170.7-173.6,170.4c-94.3-0.3-171.7-78.5-171.1-173C328.1,235.7,405.5,158.7,500.7,159z M694,572c-21.1,21.7-46.5,37.4-74.7,48.3c-26.7,10.3-55.9,15.5-84.8,19c4.4,4.7,6.4,7.1,9.2,9.8c39.3,39.5,78.7,78.7,117.8,118.3c13.3,13.5,16.1,30.2,8.8,45.9c-8,17.1-26,28.4-43.6,27.2c-11.2-0.8-19.9-6.3-27.6-14.1c-29.6-29.8-59.8-59.1-88.8-89.5c-8.5-8.8-12.5-7.2-20,0.5c-29.8,30.7-60.1,60.9-90.6,90.9c-13.7,13.5-30,15.9-45.8,8.2c-16.9-8.2-27.6-25.4-26.8-42.7c0.6-11.7,6.3-20.6,14.4-28.6c38.9-38.8,77.6-77.7,116.4-116.6c2.6-2.6,5-5.3,8.7-9.3c-52.9-5.5-100.5-18.5-141.3-50.4c-5.1-4-10.3-7.8-14.9-12.3c-17.9-17.2-19.7-36.8-5.5-57c12.1-17.3,32.4-22,53.5-12c4.1,1.9,8,4.3,11.7,6.9c76.1,52.3,180.5,53.7,256.9,2.3c7.6-5.8,15.7-10.5,25-12.9c18.2-4.7,35.2,2,45,18C707.9,540.1,707.8,557.9,694,572z"/></g></g><g></g><g></g><g></g><g></g><g></g><g></g><g></g><g></g><g></g><g></g><g></g><g></g><g></g><g></g><g></g></g>
</svg>